<svg height="1886" width="720" xmlns="http://www.w3.org/2000/svg">
<rect height="1886" fill="#555" width="720"></rect>
<text fill="#7f7" font-family="Courier New" font-size="12" xml:space="preserve">
<tspan x="10" y="26">14 megabytes installed</tspan>
<tspan x="10" y="42"></tspan>
<tspan x="10" y="58">node_modules</tspan>
<tspan x="10" y="74">└─┬ gulp-pug@3.3.0 </tspan>
<tspan x="10" y="90">  ├─┬ gulp-util@3.0.8 </tspan>
<tspan x="10" y="106">  │ ├── array-differ@1.0.0 </tspan>
<tspan x="10" y="122">  │ ├── array-uniq@1.0.3 </tspan>
<tspan x="10" y="138">  │ ├── beeper@1.1.1 </tspan>
<tspan x="10" y="154">  │ ├─┬ chalk@1.1.3 </tspan>
<tspan x="10" y="170">  │ │ ├── ansi-styles@2.2.1 </tspan>
<tspan x="10" y="186">  │ │ ├── escape-string-regexp@1.0.5 </tspan>
<tspan x="10" y="202">  │ │ ├─┬ has-ansi@2.0.0 </tspan>
<tspan x="10" y="218">  │ │ │ └── ansi-regex@2.1.1 </tspan>
<tspan x="10" y="234">  │ │ ├── strip-ansi@3.0.1 </tspan>
<tspan x="10" y="250">  │ │ └── supports-color@2.0.0 </tspan>
<tspan x="10" y="266">  │ ├── dateformat@2.0.0 </tspan>
<tspan x="10" y="282">  │ ├─┬ fancy-log@1.3.0 </tspan>
<tspan x="10" y="298">  │ │ └── time-stamp@1.0.1 </tspan>
<tspan x="10" y="314">  │ ├─┬ gulplog@1.0.0 </tspan>
<tspan x="10" y="330">  │ │ └── glogg@1.0.0 </tspan>
<tspan x="10" y="346">  │ ├─┬ has-gulplog@0.1.0 </tspan>
<tspan x="10" y="362">  │ │ └── sparkles@1.0.0 </tspan>
<tspan x="10" y="378">  │ ├── lodash._reescape@3.0.0 </tspan>
<tspan x="10" y="394">  │ ├── lodash._reevaluate@3.0.0 </tspan>
<tspan x="10" y="410">  │ ├── lodash._reinterpolate@3.0.0 </tspan>
<tspan x="10" y="426">  │ ├─┬ lodash.template@3.6.2 </tspan>
<tspan x="10" y="442">  │ │ ├── lodash._basecopy@3.0.1 </tspan>
<tspan x="10" y="458">  │ │ ├── lodash._basetostring@3.0.1 </tspan>
<tspan x="10" y="474">  │ │ ├── lodash._basevalues@3.0.0 </tspan>
<tspan x="10" y="490">  │ │ ├── lodash._isiterateecall@3.0.9 </tspan>
<tspan x="10" y="506">  │ │ ├─┬ lodash.escape@3.2.0 </tspan>
<tspan x="10" y="522">  │ │ │ └── lodash._root@3.0.1 </tspan>
<tspan x="10" y="538">  │ │ ├─┬ lodash.keys@3.1.2 </tspan>
<tspan x="10" y="554">  │ │ │ ├── lodash._getnative@3.9.1 </tspan>
<tspan x="10" y="570">  │ │ │ ├── lodash.isarguments@3.1.0 </tspan>
<tspan x="10" y="586">  │ │ │ └── lodash.isarray@3.0.4 </tspan>
<tspan x="10" y="602">  │ │ ├── lodash.restparam@3.6.1 </tspan>
<tspan x="10" y="618">  │ │ └── lodash.templatesettings@3.1.1 </tspan>
<tspan x="10" y="634">  │ ├── minimist@1.2.0 </tspan>
<tspan x="10" y="650">  │ ├─┬ multipipe@0.1.2 </tspan>
<tspan x="10" y="666">  │ │ └─┬ duplexer2@0.0.2 </tspan>
<tspan x="10" y="682">  │ │   └─┬ readable-stream@1.1.14 </tspan>
<tspan x="10" y="698">  │ │     ├── isarray@0.0.1 </tspan>
<tspan x="10" y="714">  │ │     └── string_decoder@0.10.31 </tspan>
<tspan x="10" y="730">  │ ├── object-assign@3.0.0 </tspan>
<tspan x="10" y="746">  │ ├── replace-ext@0.0.1 </tspan>
<tspan x="10" y="762">  │ └─┬ vinyl@0.5.3 </tspan>
<tspan x="10" y="778">  │   ├── clone@1.0.2 </tspan>
<tspan x="10" y="794">  │   └── clone-stats@0.0.1 </tspan>
<tspan x="10" y="810">  ├── object-assign@4.1.1 </tspan>
<tspan x="10" y="826">  ├─┬ pug@2.0.0-beta.12 </tspan>
<tspan x="10" y="842">  │ ├─┬ pug-code-gen@1.1.1 </tspan>
<tspan x="10" y="858">  │ │ ├─┬ constantinople@3.1.0 </tspan>
<tspan x="10" y="874">  │ │ │ ├── acorn@3.3.0 </tspan>
<tspan x="10" y="890">  │ │ │ └── is-expression@2.1.0 </tspan>
<tspan x="10" y="906">  │ │ ├── doctypes@1.1.0 </tspan>
<tspan x="10" y="922">  │ │ ├── js-stringify@1.0.2 </tspan>
<tspan x="10" y="938">  │ │ ├── pug-attrs@2.0.2 </tspan>
<tspan x="10" y="954">  │ │ ├── pug-error@1.3.2 </tspan>
<tspan x="10" y="970">  │ │ ├── void-elements@2.0.1 </tspan>
<tspan x="10" y="986">  │ │ └─┬ with@5.1.1 </tspan>
<tspan x="10" y="1002">  │ │   └─┬ acorn-globals@3.1.0 </tspan>
<tspan x="10" y="1018">  │ │     └── acorn@4.0.11 </tspan>
<tspan x="10" y="1034">  │ ├─┬ pug-filters@2.1.2 </tspan>
<tspan x="10" y="1050">  │ │ ├─┬ clean-css@3.4.25 </tspan>
<tspan x="10" y="1066">  │ │ │ ├─┬ commander@2.8.1 </tspan>
<tspan x="10" y="1082">  │ │ │ │ └── graceful-readlink@1.0.1 </tspan>
<tspan x="10" y="1098">  │ │ │ └─┬ source-map@0.4.4 </tspan>
<tspan x="10" y="1114">  │ │ │   └── amdefine@1.0.1 </tspan>
<tspan x="10" y="1130">  │ │ ├─┬ jstransformer@1.0.0 </tspan>
<tspan x="10" y="1146">  │ │ │ ├── is-promise@2.1.0 </tspan>
<tspan x="10" y="1162">  │ │ │ └─┬ promise@7.1.1 </tspan>
<tspan x="10" y="1178">  │ │ │   └── asap@2.0.5 </tspan>
<tspan x="10" y="1194">  │ │ ├── pug-walk@1.1.2 </tspan>
<tspan x="10" y="1210">  │ │ ├─┬ resolve@1.3.3 </tspan>
<tspan x="10" y="1226">  │ │ │ └── path-parse@1.0.5 </tspan>
<tspan x="10" y="1242">  │ │ └─┬ uglify-js@2.8.22 </tspan>
<tspan x="10" y="1258">  │ │   ├── source-map@0.5.6 </tspan>
<tspan x="10" y="1274">  │ │   ├── uglify-to-browserify@1.0.2 </tspan>
<tspan x="10" y="1290">  │ │   └─┬ yargs@3.10.0 </tspan>
<tspan x="10" y="1306">  │ │     ├── camelcase@1.2.1 </tspan>
<tspan x="10" y="1322">  │ │     ├─┬ cliui@2.1.0 </tspan>
<tspan x="10" y="1338">  │ │     │ ├─┬ center-align@0.1.3 </tspan>
<tspan x="10" y="1354">  │ │     │ │ ├─┬ align-text@0.1.4 </tspan>
<tspan x="10" y="1370">  │ │     │ │ │ ├─┬ kind-of@3.2.0 </tspan>
<tspan x="10" y="1386">  │ │     │ │ │ │ └── is-buffer@1.1.5 </tspan>
<tspan x="10" y="1402">  │ │     │ │ │ ├── longest@1.0.1 </tspan>
<tspan x="10" y="1418">  │ │     │ │ │ └── repeat-string@1.6.1 </tspan>
<tspan x="10" y="1434">  │ │     │ │ └── lazy-cache@1.0.4 </tspan>
<tspan x="10" y="1450">  │ │     │ ├── right-align@0.1.3 </tspan>
<tspan x="10" y="1466">  │ │     │ └── wordwrap@0.0.2 </tspan>
<tspan x="10" y="1482">  │ │     ├── decamelize@1.2.0 </tspan>
<tspan x="10" y="1498">  │ │     └── window-size@0.1.0 </tspan>
<tspan x="10" y="1514">  │ ├─┬ pug-lexer@3.1.0 </tspan>
<tspan x="10" y="1530">  │ │ ├─┬ character-parser@2.2.0 </tspan>
<tspan x="10" y="1546">  │ │ │ └─┬ is-regex@1.0.4 </tspan>
<tspan x="10" y="1562">  │ │ │   └─┬ has@1.0.1 </tspan>
<tspan x="10" y="1578">  │ │ │     └── function-bind@1.1.0 </tspan>
<tspan x="10" y="1594">  │ │ └─┬ is-expression@3.0.0 </tspan>
<tspan x="10" y="1610">  │ │   └── acorn@4.0.11 </tspan>
<tspan x="10" y="1626">  │ ├── pug-linker@2.0.3 </tspan>
<tspan x="10" y="1642">  │ ├── pug-load@2.0.6 </tspan>
<tspan x="10" y="1658">  │ ├─┬ pug-parser@2.0.2 </tspan>
<tspan x="10" y="1674">  │ │ └── token-stream@0.0.1 </tspan>
<tspan x="10" y="1690">  │ ├── pug-runtime@2.0.3 </tspan>
<tspan x="10" y="1706">  │ └── pug-strip-comments@1.0.2 </tspan>
<tspan x="10" y="1722">  └─┬ through2@2.0.3 </tspan>
<tspan x="10" y="1738">    ├─┬ readable-stream@2.2.9 </tspan>
<tspan x="10" y="1754">    │ ├── buffer-shims@1.0.0 </tspan>
<tspan x="10" y="1770">    │ ├── core-util-is@1.0.2 </tspan>
<tspan x="10" y="1786">    │ ├── inherits@2.0.3 </tspan>
<tspan x="10" y="1802">    │ ├── isarray@1.0.0 </tspan>
<tspan x="10" y="1818">    │ ├── process-nextick-args@1.0.7 </tspan>
<tspan x="10" y="1834">    │ ├── string_decoder@1.0.0 </tspan>
<tspan x="10" y="1850">    │ └── util-deprecate@1.0.2 </tspan>
<tspan x="10" y="1866">    └── xtend@4.0.1</tspan>
</text>
</svg>
